<svg width="414" height="48" viewBox="0 0 414 48" fill="none" xmlns="http://www.w3.org/2000/svg">
<path d="M107.317 0.656828L86.6307 36.8862L85.4334 39.3502L84.8841 40.5208L84.3107 39.3502L83.1134 36.8862L62.4267 0.656828H53.1307C53.1107 0.656828 53.0947 0.67283 53.0947 0.691496V46.6008H59.6214V21.8608C59.6214 19.0608 59.4267 16.2648 59.0414 13.4915L57.8507 4.93283L62.6881 14.1115L81.6121 46.6008H84.9267H85.2254H88.1321L107.056 14.1115L111.893 4.93283L110.703 13.4915C110.317 16.2648 110.124 19.0608 110.124 21.8608V46.6008H116.649V0.656828H107.317Z" fill="#231F20"/>
<path d="M154.037 40.8241C167.219 40.8241 174.92 34.5894 174.92 23.6294C174.92 13.2588 168.003 6.43344 154.037 6.43344C140.856 6.43344 133.155 12.7334 133.155 23.6294C133.155 34.5894 140.856 40.8241 154.037 40.8241ZM154.037 0.000104542C171.46 0.000104542 181.772 8.72944 181.772 23.6294C181.772 38.5268 171.46 47.2561 154.037 47.2561C136.613 47.2561 126.303 38.5268 126.303 23.6294C126.303 8.72944 136.613 0.000104542 154.037 0.000104542Z" fill="#231F20"/>
<path d="M200.043 22.447H211.725C221.904 22.447 227.06 19.2963 227.06 14.3083C227.06 9.58301 222.297 6.89101 211.725 6.89101H198.075L198.085 8.67634V18.1803L198.068 22.3537C198.068 22.387 198.095 22.415 198.128 22.415L200.043 22.447ZM234.891 39.1177V46.539C234.891 46.5723 234.864 46.6003 234.831 46.6003H228.427C228.393 46.6003 228.367 46.5723 228.367 46.539V38.7897C228.367 31.8977 223.993 28.6817 213.683 28.6817H198.147C198.112 28.6817 198.085 28.7097 198.085 28.743V46.539C198.085 46.5723 198.057 46.6003 198.024 46.6003H191.62C191.587 46.6003 191.559 46.5723 191.559 46.539V0.71767C191.559 0.684337 191.587 0.65634 191.62 0.65634H211.725C227.321 0.65634 233.957 4.92301 233.912 13.3897C233.883 18.819 231.556 21.3297 228.891 22.7763C225.569 24.579 218.757 25.2443 218.757 25.2443L221.073 25.3083C223.037 25.315 227.184 25.7977 229.028 26.723C229.028 26.723 234.899 28.9043 234.891 39.1177Z" fill="#231F20"/>
<path d="M263.742 40.3651C277.186 40.3651 284.625 34.3931 284.625 23.6291C284.625 12.8651 277.186 6.89173 263.742 6.89173H253.366L251.373 6.8184L251.409 8.09573V39.3157L251.351 40.3291L253.366 40.3651H263.742ZM244.882 46.4904V0.766401C244.882 0.705068 244.93 0.657067 244.99 0.657067H263.742C281.427 0.657067 291.477 8.99173 291.477 23.6291C291.477 38.2651 281.427 46.5997 263.742 46.5997H244.99C244.93 46.5997 244.882 46.5517 244.882 46.4904Z" fill="#231F20"/>
<path d="M301.199 46.555V0.701674C301.199 0.676341 301.219 0.65634 301.245 0.65634H307.681C307.706 0.65634 307.726 0.676341 307.726 0.701674V46.555C307.726 46.5803 307.706 46.6003 307.681 46.6003H301.245C301.219 46.6003 301.199 46.5803 301.199 46.555Z" fill="#231F20"/>
<path d="M353.346 30.6516L354.431 30.6769L344.757 9.49961L343.318 6.18094L342.094 9.36761C342.093 9.37028 342.091 9.37428 342.09 9.37695L332.339 30.6916L333.418 30.6516H353.346ZM340.095 0.656944H346.689C346.749 0.656944 346.802 0.690281 346.829 0.743614L369.577 46.3716C369.629 46.4769 369.553 46.5996 369.437 46.5996H362.805C362.746 46.5996 362.691 46.5663 362.665 46.5129L357.923 36.9743C357.897 36.9209 357.842 36.8863 357.783 36.8863H329.002C328.943 36.8863 328.889 36.9209 328.862 36.9743L324.118 46.5129C324.093 46.5663 324.038 46.5996 323.978 46.5996H317.347C317.23 46.5996 317.155 46.4769 317.207 46.3716L339.955 0.743614C339.982 0.690281 340.037 0.656944 340.095 0.656944Z" fill="#231F20"/>
<path d="M387.821 39.8481H413.206C413.242 39.8481 413.272 39.8774 413.272 39.9134V46.0174C413.272 46.0534 413.242 46.0828 413.206 46.0828H379.402C379.366 46.0828 379.337 46.0534 379.337 46.0174V0.205432C379.337 0.169432 379.366 0.140099 379.402 0.140099H385.798C385.834 0.140099 385.864 0.169432 385.864 0.205432V39.7281C385.864 39.7628 385.892 39.7921 385.926 39.7934L387.821 39.8481Z" fill="#231F20"/>
<path d="M43.508 46.4794V40.3154C43.508 40.2954 43.492 40.2794 43.4733 40.2794L9.94267 40.2714L6.52267 40.2687C6.50267 40.2687 6.48667 40.2527 6.488 40.2327L6.52533 36.6034V26.6634C6.52533 26.6447 6.54133 26.6287 6.56133 26.6287H39.5107C39.5307 26.6287 39.5467 26.6127 39.5467 26.5927V20.4287C39.5467 20.4087 39.5307 20.3927 39.5107 20.3927H8.484L6.58533 20.3727C6.56533 20.3727 6.55067 20.3567 6.55067 20.3367L6.532 9.43138L6.484 6.81538C6.484 6.79538 6.5 6.77938 6.52 6.77938L9.37867 6.80605H42.1213C42.1413 6.80605 42.1573 6.79005 42.1573 6.77138V0.607384C42.1573 0.587384 42.1413 0.571383 42.1213 0.571383H9.604L0.034668 0.570051C0.014668 0.570051 0 0.586051 0 0.606051V6.67938V36.6034V36.9887V40.3994V46.474C0 46.494 0.014668 46.51 0.034668 46.51H8.856C8.85467 46.5114 8.85333 46.5127 8.852 46.5154H43.4733C43.492 46.5154 43.508 46.4994 43.508 46.4794Z" fill="#231F20"/>
</svg>
