<svg width="428" height="40" viewBox="0 0 428 40" fill="none" xmlns="http://www.w3.org/2000/svg">
<path d="M95.6462 1.48047H93.6216V1.49548L93.6066 1.48047L77.2744 33.312L60.9422 1.48047L60.9272 1.49548V1.48047H58.9025H55.7381H51.2988V38.985H58.9025V18.8445L58.7526 14.8824L58.4376 11.9259L57.6277 5.29245L74.9198 38.985H79.629L96.921 5.29245L96.0961 11.9259L95.7962 14.8824L95.6462 18.8445V38.985H103.25V1.48047H98.8107H95.6462Z" fill="black" stroke="black" stroke-width="0.75" stroke-miterlimit="10"/>
<path d="M315.044 1H307.875V38.9848H315.044V1Z" fill="black" stroke="black" stroke-width="0.75" stroke-miterlimit="10"/>
<path d="M405.268 1.49536H398.1V38.9849H405.268V38.9699H427V34.0023H405.268V1.49536Z" fill="black" stroke="black" stroke-width="0.75" stroke-miterlimit="10"/>
<path d="M9.00863 22.6863H33.0045V17.7337H9.00863V7.06317H33.4694V1.57031H1.015L1.83986 20.225L1 38.9848H33.5744V33.4919H9.00863V22.6863Z" fill="black" stroke="black" stroke-width="0.75" stroke-miterlimit="10"/>
<path d="M360.323 1.5105H351.954L330.463 38.97H339.131C339.656 37.9495 342.836 31.7813 342.881 31.7813C342.881 31.7813 370.401 31.6912 370.416 31.7362L373.7 38.97H382.174C381.049 36.8839 362.242 4.79721 360.308 1.5105H360.323ZM363.112 26.0333L349.195 26.0933L345.775 26.2884L348.505 20.9906C348.505 20.9906 353.589 11.0405 353.589 11.0255L356.198 6.02785L358.358 10.4852L364.267 21.2158L367.282 26.3034L363.127 26.0032L363.112 26.0333Z" fill="black" stroke="black" stroke-width="0.75" stroke-miterlimit="10"/>
<path d="M120.005 20.0153V20.2254C120.05 26.2736 122.39 31.1061 126.499 34.4528C127.474 35.2482 128.554 35.9536 129.724 36.5839C132.798 38.2198 136.277 38.9101 139.742 38.9101H147.331C150.87 38.9101 154.424 38.1748 157.529 36.4939C163.498 33.2522 167.037 27.6543 167.082 20.2404C167.082 20.2404 167.082 20.1804 167.082 20.1504C167.082 20.1204 167.082 20.0903 167.082 20.0453C167.037 12.6165 163.483 7.00353 157.484 3.77685C154.364 2.09598 150.84 1.3606 147.301 1.3606H139.772C136.232 1.3606 132.693 2.09598 129.589 3.77685C123.605 7.01854 120.035 12.6315 119.99 20.0453L120.005 20.0153ZM143.656 6.20812C154.304 6.25314 160.198 11.3258 160.168 20.2554C160.198 29.1701 154.304 33.9726 143.656 34.0176H143.446C132.798 33.9876 126.904 29.1851 126.934 20.2554C126.904 11.3258 132.798 6.25314 143.446 6.20812C143.491 6.20812 143.521 6.22313 143.551 6.22313C143.596 6.22313 143.626 6.20812 143.656 6.20812Z" fill="black" stroke="black" stroke-width="0.75" stroke-miterlimit="10"/>
<path d="M289.908 16.0379C289.653 13.6217 289.173 11.5356 288.723 10.5151C285.214 2.3208 278.3 1.49537 275.57 1.5404L252.249 1.52539H245.141V38.9999H275.585C278.315 39.0149 285.229 38.1895 288.738 29.9952C289.188 28.9747 289.668 26.9036 289.923 24.4723V16.0379H289.908ZM284.449 20.3602C284.404 33.1769 275.765 33.522 275.33 33.522H275.27H252.129L252.534 26.5134V20.2551L252.549 20.2251V20.1951L252.534 13.9369L252.129 6.9282H275.27H275.33C275.765 6.9282 284.404 7.28839 284.449 20.0901V20.3302V20.3602Z" fill="black" stroke="black" stroke-width="0.75" stroke-miterlimit="10"/>
<path d="M218.057 23.3017C220.727 23.2117 226.051 22.0861 227.235 15.4076V9.4495C226.051 2.74101 220.697 1.63043 218.057 1.52538V1.49536H184.088V38.9849H191.257V23.3317V17.8389V6.98822H217.832C219.017 7.03324 222.016 7.36341 222.001 12.421C222.001 17.4787 219.017 17.8089 217.832 17.8389H197.046V23.3317L216.887 38.9849H227.205V38.3095L207.754 23.3317H218.012V23.3017H218.057Z" fill="black" stroke="black" stroke-width="0.75" stroke-miterlimit="10"/>
</svg>
