<svg width="442" height="45" viewBox="0 0 442 45" fill="none" xmlns="http://www.w3.org/2000/svg">
<path d="M162.752 37.9136C175.108 37.9136 182.325 32.2746 182.325 22.365C182.325 12.9885 175.842 6.81536 162.752 6.81536C150.396 6.81536 143.179 12.5139 143.179 22.365C143.179 32.2746 150.396 37.9136 162.752 37.9136ZM162.752 1C179.083 1 188.749 8.89323 188.749 22.365C188.749 35.8368 179.083 43.729 162.752 43.729C146.419 43.729 136.756 35.8368 136.756 22.365C136.756 8.89323 146.419 1 162.752 1Z" fill="black"/>
<path d="M162.752 37.9136C175.108 37.9136 182.325 32.2746 182.325 22.365C182.325 12.9885 175.842 6.81536 162.752 6.81536C150.396 6.81536 143.179 12.5139 143.179 22.365C143.179 32.2746 150.396 37.9136 162.752 37.9136ZM162.752 1C179.083 1 188.749 8.89323 188.749 22.365C188.749 35.8368 179.083 43.729 162.752 43.729C146.419 43.729 136.756 35.8368 136.756 22.365C136.756 8.89323 146.419 1 162.752 1Z" stroke="black" stroke-width="1.33333"/>
<path d="M8.44833 19.5452L10.3345 19.537H39.4492V25.175H8.49856L7.8507 37.5653L10.3345 37.5192H43.7311V43.1572H1L2.38285 22.2802L1.0328 1.58453L41.8951 1.61528V7.25227H10.3345L7.8097 7.18564L8.44833 19.5452Z" fill="black"/>
<path d="M8.44833 19.5452L10.3345 19.537H39.4492V25.175H8.49856L7.8507 37.5653L10.3345 37.5192H43.7311V43.1572H1L2.38285 22.2802L1.0328 1.58453L41.8951 1.61528V7.25227H10.3345L7.8097 7.18564L8.44833 19.5452Z" stroke="black" stroke-width="1.33333"/>
<path d="M111.111 1.61577L91.7216 34.3747L90.0148 37.0994L88.4229 34.3747L69.0332 1.61577H60.2871V43.1577H66.4028V16.985L64.8303 6.24919L69.2782 13.7816L87.0164 43.1577H90.3285H90.7949H93.1281L110.866 13.7816L115.394 6.17846L113.742 16.985V43.1577H119.857V1.61577H111.111Z" fill="black"/>
<path d="M111.111 1.61577L91.7216 34.3747L90.0148 37.0994L88.4229 34.3747L69.0332 1.61577H60.2871V43.1577H66.4028V16.985L64.8303 6.24919L69.2782 13.7816L87.0164 43.1577H90.3285H90.7949H93.1281L110.866 13.7816L115.394 6.17846L113.742 16.985V43.1577H119.857V1.61577H111.111Z" stroke="black" stroke-width="1.33333"/>
<path d="M280.649 37.5192C294.744 37.9415 300.081 32.8725 300.222 22.3857C300.363 11.9728 295.428 6.69872 280.649 7.2533L268.397 7.18769L269.182 22.2371L268.506 37.5766L280.649 37.5192ZM261.658 43.1429L263.049 22.2012L261.723 1.61528H280.649C298.975 0.921291 306.752 8.40448 306.645 22.3857C306.544 35.6207 301.285 43.1193 280.649 43.1572L261.658 43.1429Z" fill="black"/>
<path d="M280.649 37.5192C294.744 37.9415 300.081 32.8725 300.222 22.3857C300.363 11.9728 295.428 6.69872 280.649 7.2533L268.397 7.18769L269.182 22.2371L268.506 37.5766L280.649 37.5192ZM261.658 43.1429L263.049 22.2012L261.723 1.61528H280.649C298.975 0.921291 306.752 8.40448 306.645 22.3857C306.544 35.6207 301.285 43.1193 280.649 43.1572L261.658 43.1429Z" stroke="black" stroke-width="1.33333"/>
<path d="M323.451 1.61578H329.569V43.1577H323.451V1.61578Z" fill="black" stroke="black" stroke-width="1.33333"/>
<path d="M415.715 37.5192H441.304V43.1572H409.496V1.61528H415.614V33.6618L415.715 37.5192Z" fill="black"/>
<path d="M415.715 37.5192H441.304V43.1572H409.496V1.61528H415.614V33.6618L415.715 37.5192Z" stroke="black" stroke-width="1.33333"/>
<path d="M213.757 21.3145L211.922 21.2407V11.1056L211.876 7.21742L213.757 7.24715L228.818 7.14669C234.512 7.12619 239.768 8.07337 239.865 14.0292C239.99 21.6169 232.365 21.0818 226.995 21.3176C226.831 21.3248 226.742 21.3145 226.742 21.3145H213.757ZM233.812 26.7168C245.723 25.4067 245.283 15.1342 245.283 15.1342C245.283 15.1342 246.845 3.4953 235.484 1.70549C235.382 1.68909 234.903 1.64603 234.903 1.64603L205.805 1.6081V43.1572H211.922V26.9536H226.543L240.308 43.1572H248.139L233.812 26.7168Z" fill="black"/>
<path d="M213.757 21.3145L211.922 21.2407V11.1056L211.876 7.21742L213.757 7.24715L228.818 7.14669C234.512 7.12619 239.768 8.07337 239.865 14.0292C239.99 21.6169 232.365 21.0818 226.995 21.3176C226.831 21.3248 226.742 21.3145 226.742 21.3145H213.757ZM233.812 26.7168C245.723 25.4067 245.283 15.1342 245.283 15.1342C245.283 15.1342 246.845 3.4953 235.484 1.70549C235.382 1.68909 234.903 1.64603 234.903 1.64603L205.805 1.6081V43.1572H211.922V26.9536H226.543L240.308 43.1572H248.139L233.812 26.7168Z" stroke="black" stroke-width="1.33333" stroke-miterlimit="10"/>
<path d="M376.333 28.7362H369.657H369.459H362.784L358.495 28.8315L367.347 11.1999L369.558 6.54081L371.77 11.1999L380.622 28.8315L376.333 28.7362ZM372.724 1.61626H369.657H369.459H366.392L344.924 43.1582H351.726L355.994 34.3752H369.459H369.657H383.123L387.389 43.1582H394.193L372.724 1.61626Z" fill="black"/>
<path d="M376.333 28.7362H369.657H369.459H362.784L358.495 28.8315L367.347 11.1999L369.558 6.54081L371.77 11.1999L380.622 28.8315L376.333 28.7362ZM372.724 1.61626H369.657H369.459H366.392L344.924 43.1582H351.726L355.994 34.3752H369.459H369.657H383.123L387.389 43.1582H394.193L372.724 1.61626Z" stroke="black" stroke-width="1.33333"/>
</svg>
